<svg width="20" height="20" viewBox="0 0 20 20" fill="none" xmlns="http://www.w3.org/2000/svg">
<path d="M9 14.9723H11V8.98336H9V14.9723ZM10 6.98706C10.2833 6.98706 10.521 6.89124 10.713 6.69959C10.905 6.50795 11.0007 6.27105 11 5.98891C10.9993 5.70676 10.9033 5.46987 10.712 5.27822C10.5207 5.08658 10.2833 4.99076 10 4.99076C9.71667 4.99076 9.47933 5.08658 9.288 5.27822C9.09667 5.46987 9.00067 5.70676 9 5.98891C8.99933 6.27105 9.09533 6.50828 9.288 6.70059C9.48067 6.8929 9.718 6.98839 10 6.98706ZM10 19.963C8.61667 19.963 7.31667 19.7008 6.1 19.1765C4.88334 18.6521 3.825 17.9411 2.925 17.0434C2.025 16.1458 1.31267 15.0894 0.788001 13.8743C0.263335 12.6592 0.000667933 11.3616 1.26582e-06 9.98151C-0.000665401 8.6014 0.262001 7.30381 0.788001 6.08872C1.314 4.87364 2.02633 3.81726 2.925 2.91959C3.82367 2.02192 4.882 1.31091 6.1 0.786543C7.318 0.262181 8.618 0 10 0C11.382 0 12.682 0.262181 13.9 0.786543C15.118 1.31091 16.1763 2.02192 17.075 2.91959C17.9737 3.81726 18.6863 4.87364 19.213 6.08872C19.7397 7.30381 20.002 8.6014 20 9.98151C19.998 11.3616 19.7353 12.6592 19.212 13.8743C18.6887 15.0894 17.9763 16.1458 17.075 17.0434C16.1737 17.9411 15.1153 18.6525 13.9 19.1775C12.6847 19.7025 11.3847 19.9644 10 19.963Z" fill="white"/>
</svg>
