<svg width="26" height="26" viewBox="0 0 26 26" fill="none" xmlns="http://www.w3.org/2000/svg">
<path d="M21 15.8899C21.6443 15.8899 22.1667 16.4123 22.1667 17.0566V17.8062C22.1667 18.7727 22.9502 19.5562 23.9167 19.5562H24.4446C25.1195 19.5562 25.6667 20.1034 25.6667 20.7783C25.6667 21.4532 25.1195 22.0004 24.4446 22.0004H23.9167C22.9502 22.0004 22.1667 22.7839 22.1667 23.7504V24.5C22.1667 25.1443 21.6443 25.6667 21 25.6667C20.3557 25.6667 19.8333 25.1443 19.8333 24.5V23.7504C19.8333 22.7839 19.0498 22.0004 18.0833 22.0004H17.5554C16.8805 22.0004 16.3333 21.4532 16.3333 20.7783C16.3333 20.1034 16.8805 19.5562 17.5554 19.5562H18.0833C19.0498 19.5562 19.8333 18.7727 19.8333 17.8062V17.0566C19.8333 16.4123 20.3557 15.8899 21 15.8899ZM25.6667 9.77946L25.62 10.1339L25.4296 10.8632C24.9654 12.6409 22.8369 13.4438 20.9997 13.4455C19.7712 13.4466 18.5646 13.7861 17.501 14.4299C16.4373 15.0736 15.5539 15.9991 14.9394 17.1133C14.325 18.2276 14.001 19.4915 14 20.7783C14 22.0027 13.1439 23.2225 11.9195 23.2225H5.25C4.61017 23.2225 4.02802 22.9506 3.60492 22.5131C3.24545 22.1413 3.09535 21.6264 2.96363 21.1263L0.116667 10.3172C0.0391112 9.95973 -0.0370757 9.57782 0.117589 9.24635C0.307483 8.83939 0.70716 8.55737 1.16667 8.55737H2.23469C4.90612 8.55737 7.40127 7.22393 8.88577 5.00294L11.8767 0.52822C11.9842 0.364306 12.1285 0.230469 12.2968 0.138397C12.4651 0.0463247 12.6524 -0.00118308 12.8423 2.23809e-05C13.0321 0.00122785 13.2189 0.0511098 13.3861 0.145312C13.5533 0.239515 13.696 0.375173 13.8017 0.540441L16.7811 5.00093C18.2654 7.22308 20.7612 8.55737 23.4335 8.55737H24.5C25.1417 8.55737 25.6667 9.10731 25.6667 9.77946ZM15.1667 15.8899C15.1667 14.5456 14.1283 13.4457 12.8333 13.4457C11.5383 13.4457 10.5 14.5456 10.5 15.8899C10.5 17.2342 11.55 18.3341 12.8333 18.3341C14.1167 18.3341 15.1667 17.2464 15.1667 15.8899ZM12.8333 8.55737C14.3257 8.55737 15.2132 6.89126 14.3806 5.65275C13.6418 4.5538 12.0249 4.5538 11.2861 5.65275C10.4534 6.89126 11.341 8.55737 12.8333 8.55737Z" fill="#34C81E"/>
</svg>
