<svg width="9" height="10" viewBox="0 0 9 10" fill="none" xmlns="http://www.w3.org/2000/svg">
<path fill-rule="evenodd" clip-rule="evenodd" d="M7.54529 4.43455H4.70893V1.04324C4.70893 0.73068 4.49715 0.478027 4.2362 0.478027C3.97526 0.478027 3.76347 0.73068 3.76347 1.04324V4.43455H0.927111C0.666166 4.43455 0.454384 4.6872 0.454384 4.99977C0.454384 5.31233 0.666166 5.56498 0.927111 5.56498H3.76347V8.95629C3.76347 9.26885 3.97526 9.52151 4.2362 9.52151C4.49715 9.52151 4.70893 9.26885 4.70893 8.95629V5.56498H7.54529C7.80624 5.56498 8.01802 5.31233 8.01802 4.99977C8.01802 4.6872 7.80624 4.43455 7.54529 4.43455Z" fill="#404040"/>
</svg>
