<svg width="49" height="49" viewBox="0 0 49 49" fill="none" xmlns="http://www.w3.org/2000/svg">
<path d="M24.5 20.4167C25.4384 20.4167 26.3676 20.2318 27.2346 19.8727C28.1016 19.5136 28.8893 18.9873 29.5529 18.3237C30.2164 17.6601 30.7428 16.8724 31.1019 16.0054C31.461 15.1385 31.6458 14.2092 31.6458 13.2708C31.6458 12.3324 31.461 11.4032 31.1019 10.5362C30.7428 9.66927 30.2164 8.88152 29.5529 8.21797C28.8893 7.55441 28.1016 7.02806 27.2346 6.66894C26.3676 6.30983 25.4384 6.125 24.5 6.125C22.6048 6.125 20.7872 6.87786 19.4471 8.21797C18.107 9.55807 17.3542 11.3756 17.3542 13.2708C17.3542 15.166 18.107 16.9836 19.4471 18.3237C20.7872 19.6638 22.6048 20.4167 24.5 20.4167ZM6.125 41.65V42.875H42.875V41.65C42.875 37.0767 42.875 34.79 41.9848 33.0423C41.2019 31.5057 39.9526 30.2565 38.416 29.4735C36.6683 28.5833 34.3817 28.5833 29.8083 28.5833H19.1917C14.6183 28.5833 12.3317 28.5833 10.584 29.4735C9.04741 30.2565 7.79812 31.5057 7.01517 33.0423C6.125 34.79 6.125 37.0767 6.125 41.65Z" fill="white" stroke="white" stroke-width="2" stroke-linecap="round" stroke-linejoin="round"/>
</svg>
