<svg width="49" height="49" viewBox="0 0 49 49" fill="none" xmlns="http://www.w3.org/2000/svg">
<path d="M14.5469 24.5C18.3525 24.5 21.4375 21.415 21.4375 17.6094C21.4375 13.8038 18.3525 10.7188 14.5469 10.7188C10.7413 10.7188 7.65625 13.8038 7.65625 17.6094C7.65625 21.415 10.7413 24.5 14.5469 24.5Z" fill="white"/>
<path d="M22.3945 28.3281C19.6995 26.9596 16.7251 26.4141 14.5469 26.4141C10.2804 26.4141 1.53125 29.0306 1.53125 34.2617V38.2812H15.8867V36.7433C15.8867 34.9249 16.6523 33.1018 17.9922 31.582C19.0612 30.3685 20.558 29.2421 22.3945 28.3281Z" fill="white"/>
<path d="M32.5391 27.5625C27.5558 27.5625 17.6094 30.6403 17.6094 36.75V41.3438H47.4688V36.75C47.4688 30.6403 37.5223 27.5625 32.5391 27.5625Z" fill="white"/>
<path d="M32.5391 24.5C37.1903 24.5 40.9609 20.7294 40.9609 16.0781C40.9609 11.4269 37.1903 7.65625 32.5391 7.65625C27.8878 7.65625 24.1172 11.4269 24.1172 16.0781C24.1172 20.7294 27.8878 24.5 32.5391 24.5Z" fill="white"/>
</svg>
